Coordinates
version=1
nRows=29
nColumns=24
inDegrees=yes

Units are S.I. units (second, meters, Newtons, ...)
Angles are in degrees.

endheader
time	pelvis_tilt	pelvis_list	pelvis_rotation	pelvis_tx	pelvis_ty	pelvis_tz	hip_flexion_r	hip_adduction_r	hip_rotation_r	knee_angle_r	ankle_angle_r	subtalar_angle_r	mtp_angle_r	hip_flexion_l	hip_adduction_l	hip_rotation_l	knee_angle_l	ankle_angle_l	subtalar_angle_l	mtp_angle_l	lumbar_extension	lumbar_bending	lumbar_rotation
      0.91616667	     -0.21645363	     -0.54552592	     -0.70238276	     -0.17665338	      0.97711850	      0.30679751	    -11.16745247	      4.07567216	     -6.24408946	    -12.93511964	     16.56462249	     -0.30030029	     -0.63961296	     25.35139236	      1.39756793	     -1.91199683	    -10.17563001	      0.11239258	     -4.24422971	     -2.76783284	     -1.63172128	      4.40612262	      7.81198602
      0.92033333	     -0.24260820	     -0.44576634	     -0.73739318	     -0.17058324	      0.97663603	      0.30650585	    -11.11927414	      3.89958173	     -6.14474903	    -13.72156976	     16.60453981	     -0.42681503	     -0.62615018	     25.22142484	      1.58278520	     -1.84034711	    -10.17753968	     -0.15767153	     -4.20046045	     -2.66980192	     -1.54091061	      4.28427722	      7.79051568
      0.92450000	     -0.33173589	     -0.37179041	     -0.78123088	     -0.16456235	      0.97610609	      0.30618366	    -10.93642731	      3.74098990	     -6.03731878	    -14.63652450	     16.70210047	     -0.50092220	     -0.57879048	     25.14962874	      1.75381893	     -1.62343895	    -10.22067235	     -0.48278518	     -4.41918358	     -2.45366439	     -1.37423140	      4.22365467	      7.81741882
      0.92866667	     -0.30059726	     -0.22531747	     -0.80135643	     -0.15845647	      0.97578052	      0.30579988	    -10.86177715	      3.48519331	     -6.07800874	    -15.59020073	     16.68545185	     -0.35435842	      0.14692813	     24.93519071	      2.00918566	     -1.43607213	    -10.29333870	     -0.94880819	     -4.74267641	      0.05867045	     -1.36193929	      4.05944109	      7.79128067
      0.93283333	     -0.42574290	     -0.14061591	     -0.82596194	     -0.15239997	      0.97529460	      0.30547985	    -10.58790800	      3.32535164	     -5.91980770	    -16.59155280	     16.59923319	     -0.62531526	      0.19140777	     24.94081807	      2.18710080	     -1.23599769	    -10.53241712	     -1.22889403	     -4.87363332	      0.13374116	     -1.15042318	      3.97625466	      7.80593730
      0.93700000	     -0.50744604	     -0.04282524	     -0.84863421	     -0.14633252	      0.97490712	      0.30513635	    -10.32002505	      3.14132770	     -5.80115937	    -17.66732660	     16.49840355	     -0.80737341	      0.27178904	     24.88880489	      2.38316312	     -1.01129150	    -10.79041325	     -1.58284967	     -5.14343070	      0.23296375	     -0.99129082	      3.87093947	      7.80479655
      0.94116667	     -0.57136324	      0.07466386	     -0.86166762	     -0.14023382	      0.97458622	      0.30477032	    -10.03544355	      2.92979342	     -5.71794292	    -18.80496604	     16.33895291	     -0.94375109	      0.39035790	     24.81412215	      2.60348758	     -0.77122271	    -11.08223784	     -1.95161827	     -5.46221060	      0.34972541	     -0.84667085	      3.73576435	      7.78917100
      0.94533333	     -0.62291179	      0.20544916	     -0.86451890	     -0.13414649	      0.97431373	      0.30437464	     -9.72321753	      2.69741938	     -5.65740221	    -20.00858829	     16.11486979	     -1.03754544	      0.57417569	     24.73498222	      2.84145855	     -0.51698728	    -11.42071304	     -2.32040295	     -5.84027837	      0.49788800	     -0.72972527	      3.59010845	      7.76493074
      0.94950000	     -0.65608463	      0.37385147	     -0.85347474	     -0.12800594	      0.97408239	      0.30392577	     -9.38431969	      2.40033677	     -5.71325028	    -21.29172594	     15.78588331	     -0.98940840	      3.78538262	     24.63239621	      3.12082194	     -0.28501176	    -11.77810298	     -2.69542872	     -6.20894264	      2.63246077	     -0.62524854	      3.40161470	      7.68967205
      0.95366667	     -0.74354578	      0.49720140	     -0.86072554	     -0.12192599	      0.97385240	      0.30355536	     -8.95895144	      2.18109965	     -5.58080825	    -22.60331987	     15.36952289	     -1.25043018	      3.85351788	     24.60366442	      3.33905363	     -0.05406056	    -12.18649648	     -3.04020702	     -6.58308518	      2.63538783	     -0.46007926	      3.26036640	      7.67383276
      0.95783333	     -0.80111284	      0.64798452	     -0.85040611	     -0.11583581	      0.97367597	      0.30312152	     -8.51582304	      1.91340415	     -5.53901860	    -24.00161276	     14.93620980	     -1.35350266	      3.99484586	     24.54824563	      3.59501053	      0.18331512	    -12.62580818	     -3.35437173	     -7.00751538	      2.64672654	     -0.33002303	      3.09622950	      7.62387502
      0.96200000	     -0.86704000	      0.80964772	     -0.83674741	     -0.10975739	      0.97351140	      0.30266950	     -8.01643499	      1.62317427	     -5.52397741	    -25.47095756	     14.41315339	     -1.41168202	      4.20421481	     24.50390012	      3.86033482	      0.41117097	    -13.08043600	     -3.63890171	     -7.43349733	      2.66115664	     -0.18803721	      2.91680792	      7.56258476
      0.96616667	     -0.93837699	      0.97406337	     -0.81537194	     -0.10370266	      0.97335163	      0.30220513	     -7.46761082	      1.32401026	     -5.51810888	    -27.00285530	     13.80427434	     -1.45189796	      4.49030855	     24.47509720	      4.12746221	      0.62793347	    -13.56273816	     -3.87851970	     -7.85506424	      2.67550661	     -0.04687351	      2.72920669	      7.48916521
      0.97033333	     -0.91233494	      1.19058864	     -0.75973526	     -0.09758000	      0.97335959	      0.30164388	     -7.00782355	      0.93502658	     -5.65655100	    -28.53563609	     12.90258622	     -1.36183947	      9.41530339	     24.31395171	      4.46715459	      0.87998722	    -14.00862901	     -4.03671419	     -8.27675177	      2.83389600	     -0.00834324	      2.48374756	      7.40015199
      0.97450000	     -0.98229485	      1.38366513	     -0.76765074	     -0.09155338	      0.97328298	      0.30123054	     -6.37191324	      0.59635976	     -5.59027247	    -30.19088845	     12.18327458	     -1.54220701	      9.47891357	     24.27856016	      4.73641773	      0.98520556	    -14.49268354	     -4.20059577	     -8.58254281	      2.82688816	      0.13909761	      2.25561709	      7.32144235
      0.97866667	     -1.03592956	      1.57562659	     -0.72889138	     -0.08557574	      0.97320400	      0.30072047	     -5.72332411	      0.24361660	     -5.61249749	    -31.87575620	     11.31462787	     -1.55430986	      9.62927519	     24.24909330	      5.03072348	      1.15823717	    -15.03050525	     -4.29408644	     -9.00572858	      2.81102392	      0.24701858	      2.04115070	      7.23598349
      0.98283333	     -1.01665994	      1.82327726	     -0.66363388	     -0.07953929	      0.97326916	      0.30012020	     -5.13664446	     -0.20286465	     -5.74390766	    -33.56721529	     10.22411715	     -1.46139461	     12.82875455	     24.09170594	      5.40314643	      1.39896419	    -15.48470215	     -4.29330596	     -9.44968088	      2.44789145	      0.27801484	      1.76253383	      7.13665322
      0.98700000	     -1.05206512	      2.04779734	     -0.66156079	     -0.07358660	      0.97327586	      0.29969016	     -4.43157972	     -0.60195638	     -5.71099700	    -35.34091350	      9.23047228	     -1.58098021	     12.88757183	     24.02287515	      5.69629868	      1.43710060	    -15.98811312	     -4.26493194	     -9.65597189	      2.44023403	      0.37852684	      1.50176129	      7.03511967
      0.99116667	     -1.07784957	      2.28615291	     -0.61947242	     -0.06768498	      0.97329395	      0.29916939	     -3.71396442	     -1.02912338	     -5.73415435	    -37.12748700	      8.12074824	     -1.56316047	     13.03915880	     23.94828674	      6.03148848	      1.56198375	    -16.50647504	     -4.17904599	    -10.00552883	      2.41403715	      0.44423802	      1.22798488	      6.92851290
      0.99533333	     -1.07351020	      2.55016968	     -0.58613377	     -0.06175530	      0.97339701	      0.29867002	     -3.00806825	     -1.49222945	     -5.75671436	    -38.92656626	      6.91895393	     -1.62150920	     13.14953334	     23.80590020	      6.38117126	      1.64248124	    -16.95912706	     -4.01277989	    -10.19868572	      2.39342999	      0.48961619	      0.93451987	      6.82842123
      0.99950000	     -1.08625405	      2.79511016	     -0.53740382	     -0.05591725	      0.97346016	      0.29816267	     -2.25129868	     -1.93955872	     -5.79037231	    -40.74922803	      5.67417854	     -1.61368585	     13.33419244	     23.69720552	      6.71610885	      1.72642831	    -17.43696772	     -3.83301359	    -10.48740881	      2.35066953	      0.53695798	      0.63600443	      6.71075124
      1.00366667	     -1.07381098	      3.07126929	     -0.49513542	     -0.05009764	      0.97359019	      0.29766590	     -1.50595263	     -2.42007897	     -5.78941882	    -42.56683837	      4.39096176	     -1.64517981	     13.55227309	     23.54006197	      7.07984206	      1.80247248	    -17.87497798	     -3.60403053	    -10.71801662	      2.29248597	      0.55168510	      0.31503038	      6.59426276
      1.00783333	     -1.07087711	      3.35204438	     -0.45920039	     -0.04431352	      0.97372913	      0.29717398	     -0.72764786	     -2.90693830	     -5.76576199	    -44.38715707	      3.10391395	     -1.69565729	     13.87910464	     23.36916948	      7.44625720	      1.88079876	    -18.26510865	     -3.32064747	    -10.94580881	      2.18872366	      0.58376433	      0.00401533	      6.46663793
      1.01200000	     -0.99412191	      3.66229910	     -0.42744466	     -0.03853244	      0.97399127	      0.29673656	     -0.01852362	     -3.42664301	     -5.74185335	    -46.19847374	      1.85663015	     -1.86165057	     13.95185687	     23.09708445	      7.82651301	      1.88380505	    -18.61160188	     -2.96779006	    -10.98753191	      2.16326849	      0.52667164	     -0.36281796	      6.37030613
      1.01616667	     -1.01148500	      3.91371683	     -0.37734110	     -0.03287392	      0.97412075	      0.29627726	      0.81659940	     -3.87532391	     -5.70747199	    -47.99546161	      0.53664268	     -1.96874999	     14.15560706	     22.94011225	      8.15533434	      1.92214959	    -18.97497245	     -2.67550031	    -11.19537013	      2.05984300	      0.56204044	     -0.64520692	      6.23560326
      1.02033333	     -0.96374966	      4.20558234	     -0.32817204	     -0.02722420	      0.97436786	      0.29585890	      1.58427381	     -4.36073884	     -5.65306393	    -49.76307361	     -0.69687510	     -2.14535404	     14.24410794	     22.68172212	      8.51729964	      1.93329921	    -19.27615611	     -2.34834910	    -11.25071515	      1.99425841	      0.51233895	     -1.00543796	      6.12312331
      1.02450000	     -0.93144646	      4.48813066	     -0.28752065	     -0.02162225	      0.97461884	      0.29545639	      2.38299768	     -4.82799298	     -5.56529494	    -51.50571791	     -1.85525361	     -2.34911244	     14.28014461	     22.41487246	      8.86676347	      1.94961332	    -19.52446028	     -1.99060821	    -11.30656174	      1.93927248	      0.48149123	     -1.33803650	      6.00690215
      1.02866667	     -0.92355472	      4.75278976	     -0.24262564	     -0.01607635	      0.97485679	      0.29507412	      3.21858171	     -5.26746475	     -5.46824438	    -53.21344757	     -2.94952090	     -2.59403775	     14.28057601	     22.16399522	      9.19433843	      1.95338467	    -19.74900012	     -1.64283922	    -11.38966600	      1.86080059	      0.47564572	     -1.63996784	      5.87976717
      1.03283333	     -0.89313076	      5.02867835	     -0.20253432	     -0.01054793	      0.97515767	      0.29471664	      4.03270236	     -5.71112584	     -5.35307565	    -54.87815253	     -3.91283053	     -2.83775663	     14.24052509	     21.84916370	      9.52943077	      1.95982926	    -19.89236390	     -1.26848366	    -11.39533077	      1.81739701	      0.44039840	     -1.96521703	      5.76613950
